<svg width="23" height="24" viewBox="0 0 23 24" fill="none" xmlns="http://www.w3.org/2000/svg">
<path d="M11.5 24C11.1429 24 10.8095 23.9118 10.5 23.7575L7.33333 22.0156C6.85714 21.7731 7.09524 21.6849 7.2381 21.6408C7.88095 21.4424 8 21.3983 8.66667 21.0455C8.7381 21.0014 8.83333 21.0234 8.90476 21.0675L11.3333 22.4125C11.4286 22.4566 11.5476 22.4566 11.619 22.4125L21.119 17.3192C21.2143 17.2751 21.2619 17.187 21.2619 17.0767V6.91226C21.2619 6.80202 21.2143 6.71383 21.119 6.66973L11.619 1.59853C11.5238 1.55443 11.4048 1.55443 11.3333 1.59853L1.83333 6.66973C1.7381 6.71383 1.69048 6.82407 1.69048 6.91226V17.0767C1.69048 17.1649 1.7381 17.2751 1.83333 17.3192L4.42857 18.7083C5.83333 19.3698 6.71429 18.5981 6.71429 17.8264V7.79421C6.71429 7.66192 6.83333 7.52963 7 7.52963H8.21429C8.35714 7.52963 8.5 7.63987 8.5 7.79421V17.8264C8.5 19.5682 7.47619 20.5825 5.69048 20.5825C5.14286 20.5825 4.71429 20.5825 3.5 20.0312L1 18.7083C0.380952 18.3776 0 17.7602 0 17.0988V6.93431C0 6.27285 0.380952 5.65549 1 5.32476L10.5 0.231511C11.0952 -0.0771704 11.9048 -0.0771704 12.5 0.231511L22 5.32476C22.619 5.65549 23 6.27285 23 6.93431V17.0988C23 17.7602 22.619 18.3776 22 18.7083L12.5 23.8016C12.1905 23.9339 11.8333 24 11.5 24ZM14.4286 17.0106C10.2619 17.0106 9.40476 15.2467 9.40476 13.7474C9.40476 13.6151 9.52381 13.4828 9.69048 13.4828H10.9286C11.0714 13.4828 11.1905 13.571 11.1905 13.7033C11.381 14.8718 11.9286 15.4451 14.4524 15.4451C16.4524 15.4451 17.3095 15.0262 17.3095 14.034C17.3095 13.4607 17.0714 13.0418 13.9524 12.7552C11.3571 12.5126 9.7381 11.9835 9.7381 10.0652C9.7381 8.27928 11.3571 7.22095 14.0714 7.22095C17.119 7.22095 18.619 8.19109 18.8095 10.3078C18.8095 10.3739 18.7857 10.4401 18.7381 10.5062C18.6905 10.5503 18.619 10.5944 18.5476 10.5944H17.3095C17.1905 10.5944 17.0714 10.5062 17.0476 10.396C16.7619 9.18328 16.0238 8.7864 14.0714 8.7864C11.881 8.7864 11.619 9.49196 11.619 10.0211C11.619 10.6605 11.9286 10.859 14.881 11.2118C17.8095 11.5645 19.1905 12.0717 19.1905 13.9678C19.1667 15.9081 17.4524 17.0106 14.4286 17.0106Z" fill="#FAFAFA"/>
</svg>
