<svg width="24" height="24" viewBox="0 0 24 24" fill="none" xmlns="http://www.w3.org/2000/svg">
<path d="M14.23 12.004C14.23 12.5969 13.9946 13.1655 13.5754 13.5848C13.1563 14.0041 12.5879 14.2398 11.995 14.24C11.402 14.24 10.8332 14.0044 10.4139 13.5851C9.99458 13.1658 9.759 12.597 9.759 12.004C9.759 11.4112 9.99444 10.8426 10.4136 10.4233C10.8327 10.004 11.4011 9.76829 11.994 9.76803C12.587 9.76803 13.1558 10.0036 13.5751 10.4229C13.9944 10.8423 14.23 11.411 14.23 12.004ZM16.878 1.31403C15.532 1.31403 13.771 2.27403 11.99 3.93603C10.21 2.28303 8.448 1.33403 7.103 1.33403C6.693 1.33403 6.32 1.42703 5.997 1.61203C4.622 2.40503 4.314 4.87603 5.024 7.97703C1.98 8.91703 0 10.42 0 12.004C0 13.594 1.99 15.101 5.043 16.034C4.339 19.147 4.653 21.622 6.031 22.414C6.351 22.601 6.721 22.689 7.133 22.689C8.478 22.689 10.24 21.729 12.021 20.065C13.801 21.719 15.563 22.668 16.908 22.668C17.318 22.668 17.691 22.578 18.014 22.393C19.388 21.601 19.697 19.13 18.987 16.028C22.02 15.096 24 13.59 24 12.004C24 10.414 22.01 8.90703 18.957 7.97203C19.661 4.86203 19.347 2.38503 17.969 1.59203C17.651 1.40803 17.282 1.31503 16.878 1.31403ZM16.873 2.40403V2.41003C17.098 2.41003 17.279 2.45403 17.431 2.53703C18.097 2.91903 18.386 4.37203 18.161 6.24103C18.107 6.70103 18.019 7.18603 17.911 7.68103C16.951 7.44503 15.905 7.26403 14.804 7.14703C14.144 6.24203 13.459 5.42003 12.769 4.70003C14.361 3.22003 15.856 2.40803 16.874 2.40503L16.873 2.40403ZM7.103 2.42403C8.115 2.42403 9.617 3.23203 11.213 4.70403C10.527 5.42403 9.843 6.24103 9.193 7.14603C8.086 7.26303 7.039 7.44403 6.08 7.68403C5.968 7.19403 5.885 6.72003 5.826 6.26403C5.596 4.39603 5.88 2.94403 6.54 2.55703C6.73 2.46703 6.94 2.42903 7.103 2.42403ZM11.985 5.47403C12.44 5.94203 12.895 6.46603 13.345 7.03803C12.905 7.01803 12.455 7.00403 12 7.00403C11.54 7.00403 11.085 7.01403 10.64 7.03803C11.08 6.46603 11.535 5.94303 11.985 5.47403ZM12 8.10003C12.74 8.10003 13.477 8.13403 14.202 8.19303C14.608 8.77503 15.004 9.39603 15.385 10.053C15.757 10.693 16.095 11.343 16.403 11.999C16.095 12.654 15.757 13.309 15.39 13.949C15.01 14.609 14.617 15.237 14.21 15.819C13.482 15.882 12.744 15.917 12 15.917C11.26 15.917 10.523 15.882 9.798 15.824C9.392 15.242 8.996 14.62 8.615 13.964C8.243 13.324 7.905 12.674 7.597 12.018C7.9 11.361 8.243 10.705 8.61 10.064C8.99 9.40403 9.383 8.77803 9.79 8.19603C10.518 8.13203 11.256 8.09803 12 8.09803V8.10003ZM8.365 8.35403C8.125 8.73103 7.885 9.11703 7.661 9.51403C7.436 9.90403 7.226 10.296 7.026 10.688C6.761 10.032 6.536 9.37803 6.35 8.74103C6.99 8.59103 7.665 8.45703 8.365 8.35403ZM15.625 8.35403C16.32 8.45703 16.99 8.58403 17.631 8.74103C17.451 9.37303 17.226 10.023 16.971 10.674C16.771 10.284 16.561 9.89103 16.331 9.50003C16.106 9.10803 15.866 8.72603 15.626 8.35403H15.625ZM18.688 9.02903C19.172 9.17903 19.632 9.34603 20.063 9.52703C21.795 10.267 22.915 11.235 22.915 12.003C22.91 12.771 21.79 13.743 20.058 14.478C19.638 14.658 19.178 14.82 18.703 14.971C18.423 14.013 18.057 13.015 17.603 11.991C18.053 10.974 18.413 9.98103 18.688 9.02703V9.02903ZM5.293 9.03303C5.571 9.99303 5.938 10.99 6.393 12.013C5.943 13.03 5.581 14.023 5.307 14.977C4.823 14.827 4.363 14.659 3.937 14.477C2.205 13.74 1.085 12.771 1.085 12.003C1.085 11.235 2.205 10.261 3.937 9.52703C4.357 9.34703 4.817 9.18503 5.293 9.03303ZM16.971 13.313C17.236 13.97 17.461 14.625 17.647 15.261C17.007 15.418 16.331 15.551 15.631 15.651C15.871 15.276 16.111 14.889 16.336 14.493C16.561 14.103 16.77 13.705 16.971 13.313ZM7.026 13.333C7.226 13.725 7.436 14.116 7.666 14.508C7.896 14.898 8.131 15.28 8.371 15.651C7.676 15.549 7.006 15.421 6.365 15.265C6.545 14.635 6.771 13.983 7.025 13.332L7.026 13.333ZM17.92 16.32C18.032 16.813 18.12 17.288 18.174 17.743C18.404 19.611 18.12 21.063 17.46 21.451C17.313 21.541 17.122 21.579 16.897 21.579C15.885 21.579 14.383 20.772 12.787 19.299C13.473 18.579 14.157 17.763 14.807 16.859C15.914 16.741 16.961 16.56 17.92 16.32ZM6.09 16.33C7.05 16.564 8.096 16.745 9.197 16.862C9.857 17.767 10.542 18.589 11.232 19.308C9.637 20.791 8.14 21.603 7.122 21.603C6.902 21.598 6.716 21.553 6.569 21.471C5.903 21.091 5.614 19.637 5.839 17.768C5.893 17.308 5.982 16.824 6.09 16.33ZM10.65 16.97C11.09 16.99 11.54 17.004 11.995 17.004C12.455 17.004 12.91 16.994 13.355 16.97C12.915 17.542 12.46 18.065 12.01 18.535C11.555 18.065 11.1 17.542 10.65 16.97Z" fill="#FAFAFA"/>
</svg>
