<svg width="24" height="24" viewBox="0 0 24 24" fill="none" xmlns="http://www.w3.org/2000/svg">
<path d="M18.5279 6.50549L17.8337 6.27817C17.8337 6.11579 17.9062 5.94259 17.9476 5.78022C18.4658 3.11727 18.1238 0.973914 16.9114 0.270289C15.699 -0.433337 13.9581 0.270289 12.0929 1.99146C11.9167 2.15384 11.7302 2.32704 11.5644 2.50024L11.2535 2.17549C9.30542 0.324414 7.35729 -0.444162 6.18634 0.270289C5.01539 0.984739 4.72525 2.96572 5.1501 5.48794C5.19155 5.74053 5.24337 5.9895 5.30554 6.23487C5.03612 6.31064 4.7667 6.39724 4.50764 6.49467C2.22791 7.31737 0.590656 8.65967 0.590656 9.98032C0.590656 11.301 2.33154 12.7732 4.73561 13.6175L5.3159 13.8124C5.25373 14.083 5.20192 14.3428 5.1501 14.6134C4.70452 17.0924 5.04648 19.0625 6.18634 19.7337C7.32621 20.4048 9.29506 19.7337 11.1706 17.9908L11.6162 17.5578C11.8028 17.7527 11.9996 17.9259 12.1965 18.1099C14.0307 19.7553 15.8441 20.4156 16.9632 19.7445C18.0824 19.0733 18.4865 16.93 17.9995 14.332C17.9995 14.1263 17.9166 13.9314 17.8751 13.7258L18.2792 13.5959C20.7455 12.7407 22.5278 11.3659 22.5278 9.94785C22.5278 8.52977 20.8595 7.30654 18.5279 6.50549ZM12.7457 2.68427C14.3312 1.23371 15.8544 0.659989 16.4969 1.07134C17.1394 1.48269 17.5332 3.23634 17.0461 5.55289C17.0461 5.70444 16.9839 5.85599 16.9425 6.00754C15.9941 5.77865 15.0315 5.61949 14.0618 5.53124C13.5095 4.69599 12.9 3.90368 12.238 3.16057C12.4038 2.98737 12.5696 2.83582 12.7457 2.68427ZM7.79251 12.2969C8.01012 12.6866 8.23809 13.0763 8.46607 13.4551C7.80287 13.3794 7.13968 13.2603 6.48685 13.1196C6.67338 12.4701 6.91171 11.8097 7.18113 11.1278C7.37802 11.5175 7.5749 11.9072 7.79251 12.2969ZM6.49721 6.88437C7.10859 6.74364 7.77179 6.62457 8.44534 6.53797C8.21737 6.90602 7.99976 7.26685 7.79251 7.62047C7.5749 7.99934 7.37802 8.38905 7.18113 8.77875C6.92019 8.1424 6.69189 7.49197 6.49721 6.83024V6.88437ZM7.66816 10.002C7.94795 9.38494 8.25882 8.77874 8.58005 8.18337C8.90129 7.58799 9.26397 7.01427 9.61629 6.45137C10.2588 6.45137 10.9116 6.37559 11.5851 6.37559C12.2587 6.37559 12.9115 6.37559 13.5436 6.45137C13.9063 7.01427 14.2586 7.53387 14.5799 8.17254C14.9011 8.81122 15.2223 9.37412 15.5125 9.98032C15.2223 10.5973 14.9218 11.2035 14.5902 11.7989C14.2586 12.3943 13.8856 13.0005 13.5644 13.5417C12.9219 13.5959 12.2587 13.6175 11.5955 13.6175C10.9323 13.6175 10.2691 13.6175 9.63702 13.5526C9.26397 12.9897 8.92201 12.4051 8.60078 11.8097C8.27954 11.2144 7.95831 10.619 7.66816 10.002ZM15.3985 12.286C15.6161 11.8963 15.813 11.4958 16.0202 11.0953C16.2897 11.7448 16.528 12.3943 16.7456 13.0763C16.0824 13.2278 15.4089 13.3469 14.7353 13.4335C14.9633 13.0546 15.1809 12.6757 15.3985 12.286ZM16.0099 8.86535C15.8095 8.47565 15.6023 8.08595 15.3881 7.69624C15.1809 7.31737 14.9633 6.93849 14.7353 6.61374C15.3973 6.69571 16.0545 6.81496 16.7042 6.97097C16.5039 7.61442 16.2722 8.24671 16.0099 8.86535ZM11.5955 3.84254C12.0433 4.34269 12.462 4.87046 12.8494 5.42299C12.0135 5.42299 11.1706 5.42299 10.3209 5.42299C10.7201 4.87412 11.1455 4.34663 11.5955 3.84254ZM6.63193 1.09299C7.34693 0.649164 8.94274 1.27701 10.6214 2.83582L10.953 3.14974C10.2906 3.89917 9.67783 4.69484 9.1189 5.53124C8.15355 5.622 7.19478 5.77748 6.24852 5.99672C6.24852 5.76939 6.14489 5.53124 6.10344 5.30392C5.69931 3.13892 5.95837 1.50434 6.63193 1.09299ZM5.59569 12.8814L5.06721 12.7082C4.09951 12.4066 3.18831 11.9343 2.37299 11.3118C2.15882 11.1599 1.97727 10.963 1.8399 10.7338C1.70253 10.5045 1.61234 10.248 1.57508 9.98032C1.57508 9.15762 2.92219 8.11842 4.87032 7.40397L5.59569 7.15499C5.88259 8.12611 6.22871 9.07705 6.63193 10.002C6.2288 10.938 5.8827 11.8998 5.59569 12.8814ZM10.5904 17.2656C9.88325 17.9373 9.06514 18.4691 8.17592 18.8352C7.93696 18.9573 7.67628 19.0262 7.41046 19.0374C7.14465 19.0485 6.87951 19.0018 6.63193 18.9001C5.95837 18.4888 5.66822 16.9083 6.05163 14.7866C6.05163 14.5376 6.15526 14.2887 6.21743 14.0397C7.17377 14.2543 8.14328 14.399 9.1189 14.4727C9.68458 15.3102 10.3007 16.1092 10.9634 16.865L10.5593 17.2656H10.5904ZM11.6266 16.1831C11.1691 15.6648 10.7368 15.1229 10.3313 14.5593H11.5955C11.5955 14.5593 12.4659 14.5593 12.8908 14.5593C12.497 15.1655 12.0722 15.6526 11.6266 16.1722V16.1831ZM17.2119 17.5254C17.1942 17.7966 17.1224 18.061 17.001 18.3014C16.8797 18.5419 16.7115 18.7532 16.5073 18.9218C15.8337 19.3331 14.383 18.8027 12.8183 17.3955L12.2691 16.8867C12.9247 16.132 13.5273 15.3289 14.0721 14.4835C15.0561 14.4007 16.0329 14.2415 16.9943 14.0072C16.9943 14.1912 17.0772 14.3753 17.1083 14.5485C17.3189 15.5218 17.3541 16.5277 17.2119 17.5145V17.5254ZM18.0305 12.7082L17.6575 12.8273C17.3623 11.8516 16.9987 10.9001 16.5695 9.98032C16.9754 9.06772 17.3216 8.12739 17.6057 7.16582L18.2482 7.37149C20.2481 8.08594 21.647 9.15762 21.647 9.9695C21.647 10.7814 20.103 11.9721 18.0305 12.7082ZM11.6266 12.0371C12.0126 12.0307 12.3881 11.9053 12.7061 11.6766C13.024 11.4479 13.2702 11.1262 13.4137 10.7518C13.5572 10.3775 13.5915 9.96718 13.5125 9.57247C13.4335 9.17776 13.2445 8.81626 12.9694 8.53337C12.6943 8.25048 12.3453 8.05882 11.9663 7.98248C11.5873 7.90613 11.1951 7.9485 10.839 8.10426C10.483 8.26002 10.1789 8.52223 9.96504 8.85794C9.75119 9.19365 9.63706 9.58789 9.63702 9.99115C9.63702 10.2598 9.68767 10.5259 9.7861 10.7741C9.88452 11.0223 10.0288 11.2479 10.2106 11.4378C10.3925 11.6278 10.6084 11.7785 10.846 11.8813C11.0836 11.9842 11.3383 12.0371 11.5955 12.0371H11.6266ZM1.74088 22.559C1.93353 22.4908 2.09956 22.3587 2.21368 22.1828C2.32779 22.0069 2.38374 21.7969 2.37299 21.5847C2.38214 21.4401 2.36162 21.2951 2.31278 21.1594C2.26395 21.0237 2.18793 20.9005 2.08981 20.798C1.9917 20.6956 1.87376 20.6161 1.74388 20.5651C1.61401 20.5141 1.4752 20.4927 1.33675 20.5022H0V23.9229H0.507757V22.6456H1.22276L1.88595 23.9554H2.48697L1.74088 22.559ZM1.23312 22.1909H0.507757V21.0002H1.22276C1.30298 20.9892 1.38452 20.9965 1.46176 21.0216C1.53901 21.0467 1.61013 21.089 1.67021 21.1456C1.73029 21.2022 1.77792 21.2718 1.8098 21.3494C1.84167 21.4271 1.85705 21.5111 1.85487 21.5956C1.85862 21.6795 1.84467 21.7633 1.81399 21.841C1.78332 21.9187 1.73668 21.9884 1.67737 22.0452C1.61806 22.102 1.54752 22.1445 1.47076 22.1697C1.39399 22.1949 1.31287 22.2021 1.23312 22.1909ZM4.74597 22.7971V22.6239C4.74597 21.8121 4.33148 21.3141 3.6372 21.3141C3.47313 21.3127 3.31067 21.3481 3.16074 21.4177C3.01082 21.4873 2.87688 21.5896 2.76794 21.7178C2.65899 21.846 2.57756 21.997 2.5291 22.1608C2.48063 22.3245 2.46627 22.4972 2.48697 22.6672C2.46596 22.8362 2.48025 23.008 2.52885 23.1707C2.57746 23.3334 2.65922 23.4832 2.76853 23.6097C2.87784 23.7362 3.01209 23.8365 3.16204 23.9037C3.312 23.9708 3.4741 24.0033 3.6372 23.9987C3.86446 24.0103 4.08907 23.9435 4.27635 23.8085C4.46363 23.6735 4.60317 23.4779 4.67344 23.2518H4.24858C4.19042 23.3588 4.10343 23.4457 3.99841 23.5015C3.89339 23.5573 3.77499 23.5796 3.65792 23.5657C3.56678 23.5675 3.47629 23.5494 3.39227 23.5124C3.30826 23.4755 3.23257 23.4206 3.1701 23.3513C3.10763 23.2819 3.05974 23.1997 3.02954 23.1098C2.99934 23.02 2.98748 22.9245 2.99473 22.8296L4.74597 22.7971ZM3.6372 21.7146C3.7201 21.7114 3.80274 21.7264 3.87971 21.7587C3.95669 21.791 4.02629 21.84 4.08397 21.9022C4.14164 21.9645 4.18611 22.0388 4.21448 22.1203C4.24284 22.2017 4.25446 22.2885 4.24858 22.375H2.99473C3.00536 22.2056 3.07804 22.0469 3.19767 21.932C3.31731 21.8171 3.47471 21.7548 3.6372 21.7579V21.7146ZM5.94801 21.2708C5.38844 21.2708 4.98431 21.5631 4.91177 22.0069H5.38844C5.38844 21.8229 5.62677 21.7146 5.90656 21.7146C6.18634 21.7146 6.40395 21.877 6.40395 22.1476V22.3641H5.74076C5.1501 22.3641 4.81851 22.6672 4.81851 23.1327C4.81946 23.2423 4.84221 23.3504 4.88532 23.4503C4.92842 23.5502 4.99093 23.6396 5.06889 23.7129C5.14685 23.7862 5.23854 23.8417 5.33815 23.876C5.43776 23.9103 5.5431 23.9226 5.6475 23.9121C5.79417 23.9188 5.93986 23.8841 6.0693 23.8117C6.19874 23.7393 6.30717 23.6319 6.38323 23.5008V23.8688H6.84954V22.1909C6.91171 21.6605 6.55939 21.3141 5.94801 21.3141V21.2708ZM6.42468 22.9595C6.41947 23.0402 6.39888 23.1189 6.3641 23.1912C6.32931 23.2634 6.28105 23.3276 6.22215 23.3801C6.16325 23.4325 6.0949 23.4721 6.02113 23.4966C5.94735 23.521 5.86964 23.5298 5.79257 23.5224C5.52315 23.5224 5.32626 23.3817 5.32626 23.1544C5.32626 22.927 5.4817 22.808 5.82366 22.7863H6.42468V22.9595ZM8.88056 22.1693C8.84685 22.0359 8.76906 21.9193 8.66097 21.84C8.55288 21.7608 8.42144 21.724 8.28991 21.7363C7.88577 21.7363 7.63708 22.061 7.63708 22.6131C7.63708 23.1652 7.88577 23.5008 8.28991 23.5008C8.42076 23.5181 8.55316 23.4847 8.66202 23.4069C8.77088 23.3291 8.84864 23.2123 8.88056 23.0786H9.35723C9.32363 23.335 9.19777 23.5684 9.00526 23.7313C8.81276 23.8942 8.56807 23.9743 8.32099 23.9554C8.15604 23.9618 7.99176 23.9304 7.83969 23.8633C7.68763 23.7962 7.55149 23.6951 7.44085 23.5672C7.33021 23.4392 7.24776 23.2875 7.19931 23.1226C7.15086 22.9578 7.13758 22.7839 7.16041 22.6131C7.14442 22.4484 7.16176 22.2821 7.21132 22.1249C7.26088 21.9677 7.34154 21.8232 7.44806 21.7007C7.55458 21.5782 7.68459 21.4804 7.82962 21.4138C7.97466 21.3472 8.13148 21.3133 8.28991 21.3141C8.53677 21.3104 8.77681 21.3988 8.96678 21.5635C9.15676 21.7282 9.2842 21.9584 9.32615 22.2126L8.88056 22.1693ZM10.2588 20.6863V21.3358H10.7769V21.7688H10.2588V23.1002C10.2588 23.36 10.3624 23.4791 10.6111 23.4791H10.7769V23.9013C10.6909 23.9126 10.6038 23.9126 10.5178 23.9013C9.97897 23.9013 9.76136 23.7064 9.76136 23.2085V21.8121H9.37796V21.3791H9.74064V20.7296L10.2588 20.6863ZM11.9996 23.9338V20.578H12.4556L14.1343 23.0028V20.578H14.6213V23.9987H14.1654L12.4867 21.5631V23.9987L11.9996 23.9338ZM16.0513 21.2925C15.4918 21.2925 15.0876 21.5847 15.0151 22.0286H15.4918C15.4918 21.8445 15.7301 21.7363 16.0099 21.7363C16.2897 21.7363 16.5073 21.8987 16.5073 22.1693V22.3858H15.8441C15.2534 22.3858 14.9218 22.6889 14.9218 23.1544C14.9228 23.2639 14.9455 23.3721 14.9886 23.4719C15.0317 23.5718 15.0943 23.6613 15.1722 23.7345C15.2502 23.8078 15.3419 23.8634 15.4415 23.8977C15.5411 23.932 15.6464 23.9443 15.7508 23.9338C15.8975 23.9404 16.0432 23.9057 16.1726 23.8334C16.3021 23.761 16.4105 23.6536 16.4866 23.5224V23.8905H16.9943V22.1909C16.9943 21.6605 16.6731 21.3141 16.0513 21.3141V21.2925ZM16.528 22.9812C16.5228 23.0618 16.5022 23.1406 16.4674 23.2128C16.4326 23.285 16.3844 23.3493 16.3255 23.4017C16.2666 23.4542 16.1982 23.4938 16.1245 23.5182C16.0507 23.5427 15.973 23.5515 15.8959 23.5441C15.6265 23.5441 15.4296 23.4033 15.4296 23.176C15.4296 22.9487 15.585 22.8296 15.927 22.808H16.528V22.9812ZM18.0305 20.7296V21.3791H18.5694V21.8121H18.0305V23.1435C18.0305 23.4033 18.1445 23.5224 18.3829 23.5224H18.5694V23.9446C18.48 23.9568 18.3894 23.9568 18.3 23.9446C17.7611 23.9446 17.5435 23.7497 17.5435 23.2518V21.8121H17.1497V21.3791H17.5435V20.7296H18.0305ZM18.7352 20.6105C18.7289 20.5427 18.7425 20.4744 18.7743 20.4149C18.806 20.3554 18.8543 20.3073 18.9128 20.2772C18.9713 20.247 19.0372 20.2362 19.1018 20.2461C19.1663 20.2561 19.2264 20.2863 19.2741 20.3328C19.3218 20.3793 19.3548 20.4399 19.3687 20.5064C19.3827 20.573 19.3769 20.6424 19.3521 20.7055C19.3274 20.7685 19.2848 20.8222 19.2302 20.8594C19.1755 20.8966 19.1113 20.9155 19.0461 20.9136C19.0031 20.9168 18.9599 20.9103 18.9196 20.8946C18.8792 20.8789 18.8425 20.8543 18.8121 20.8224C18.7816 20.7906 18.758 20.7523 18.743 20.7101C18.7279 20.668 18.7217 20.6229 18.7248 20.578L18.7352 20.6105ZM18.8077 21.3682H19.2948V23.9554H18.8077V21.3682ZM20.8802 23.9554H20.3621L19.4709 21.3682H19.989L20.6004 23.4033L21.2118 21.3682H21.7299L20.8802 23.9554ZM23.9889 22.7971V22.6239C24.0115 22.4593 23.9995 22.2915 23.9538 22.1322C23.9082 21.9729 23.8299 21.8258 23.7244 21.7012C23.619 21.5766 23.4888 21.4775 23.343 21.4106C23.1973 21.3438 23.0393 21.3109 22.8801 21.3141C22.7169 21.3143 22.5556 21.3507 22.407 21.421C22.2583 21.4913 22.1256 21.5939 22.0178 21.7219C21.91 21.8499 21.8295 22.0004 21.7817 22.1634C21.7338 22.3263 21.7197 22.4981 21.7403 22.6672C21.7176 22.8356 21.7304 23.0072 21.7777 23.1699C21.825 23.3327 21.9058 23.4826 22.0143 23.6094C22.1228 23.7362 22.2565 23.8367 22.4061 23.9039C22.5556 23.9712 22.7174 24.0035 22.8801 23.9987C23.1074 24.0103 23.332 23.9435 23.5193 23.8085C23.7066 23.6735 23.8461 23.4779 23.9164 23.2518H23.4397C23.3855 23.36 23.3007 23.4481 23.1969 23.5043C23.0931 23.5604 22.9753 23.5819 22.8594 23.5657C22.7683 23.5675 22.6778 23.5494 22.5938 23.5124C22.5098 23.4755 22.4341 23.4206 22.3716 23.3513C22.3091 23.2819 22.2612 23.1997 22.231 23.1098C22.2008 23.02 22.189 22.9245 22.1962 22.8296L23.9889 22.7971ZM22.8801 21.7146C22.9626 21.713 23.0445 21.7292 23.1208 21.7621C23.197 21.795 23.266 21.8439 23.3233 21.9059C23.3807 21.9678 23.4252 22.0414 23.4541 22.1221C23.4831 22.2028 23.4958 22.2889 23.4915 22.375H22.1755C22.186 22.2074 22.2573 22.0504 22.3747 21.9358C22.4921 21.8212 22.6469 21.7576 22.8076 21.7579L22.8801 21.7146Z" fill="white"/>
</svg>
