<svg width="23" height="27" viewBox="0 0 23 27" fill="none" xmlns="http://www.w3.org/2000/svg">
<path d="M17.123 0.271442L16.9789 3.32103C16.9744 3.49228 17.1839 3.59773 17.329 3.49228L18.5925 2.59133L19.6653 3.37755C19.805 3.46529 19.9921 3.37755 20.0011 3.21896L19.8802 0.117064L21.4705 0.003179C22.2962 -0.0499674 23 0.570074 23 1.35209V25.6493C23 26.4229 22.3141 27.0378 21.4938 26.9982L2.26897 26.19C1.52304 26.1597 0.921282 25.5928 0.898 24.885L0.00252991 2.61326C-0.0440345 1.86668 0.557721 1.2247 1.35021 1.18505L17.1096 0.249508L17.123 0.271442ZM13.4579 10.4646C13.4579 10.9918 17.2314 10.7328 17.7436 10.3726C17.7436 6.77386 15.6912 4.87156 11.9418 4.87156C8.18265 4.87156 6.09352 6.80929 6.09352 9.70029C6.09352 14.7045 13.2573 14.7922 13.2573 17.5255C13.2573 18.3168 12.8749 18.7647 12.0027 18.7647C10.8556 18.7647 10.3891 18.2155 10.45 16.3352C10.45 15.9311 6.09352 15.7944 5.94935 16.3352C5.62787 20.8695 8.61248 22.1829 12.0359 22.1829C15.3706 22.1829 17.9728 20.5093 17.9728 17.4816C17.9728 12.1172 10.6882 12.2614 10.6882 9.60834C10.6882 8.51842 11.5514 8.37332 12.0359 8.37332C12.5767 8.37332 13.5286 8.45261 13.4588 10.4739L13.4579 10.4646Z" fill="white"/>
</svg>
