<svg width="24" height="16" viewBox="0 0 24 16" fill="none" xmlns="http://www.w3.org/2000/svg">
<path d="M12.001 0.799988C8.80098 0.799988 6.80098 2.39999 6.00098 5.59999C7.20098 3.99999 8.60098 3.39999 10.201 3.79999C11.114 4.02799 11.766 4.68999 12.489 5.42399C13.666 6.61799 15.027 7.99999 18.001 7.99999C21.201 7.99999 23.201 6.39999 24.001 3.19999C22.801 4.79999 21.401 5.39999 19.801 4.99999C18.888 4.77199 18.236 4.10999 17.513 3.37599C16.337 2.18199 14.976 0.799988 12.001 0.799988ZM6.00098 7.99999C2.80098 7.99999 0.800977 9.59999 0.000976562 12.8C1.20098 11.2 2.60098 10.6 4.20098 11C5.11398 11.228 5.76598 11.89 6.48898 12.624C7.66598 13.818 9.02698 15.2 12.001 15.2C15.201 15.2 17.201 13.6 18.001 10.4C16.801 12 15.401 12.6 13.801 12.2C12.888 11.972 12.236 11.31 11.513 10.576C10.337 9.38199 8.97598 7.99999 6.00098 7.99999Z" fill="#FAFAFA"/>
</svg>
