<svg width="21" height="14" viewBox="0 0 21 14" fill="none" xmlns="http://www.w3.org/2000/svg">
<path d="M17.4632 0.123536C18.1758 0.289315 18.8233 0.662454 19.3241 1.19587C19.5999 1.48455 19.8394 1.80587 20.0373 2.15268C20.0465 2.19035 18.7532 3.05926 17.9688 3.54394C17.9403 3.5632 17.8273 3.44014 17.6993 3.25096C17.556 3.00466 17.3526 2.79869 17.1081 2.6523C16.8637 2.50591 16.5861 2.42388 16.3013 2.41385C15.3997 2.35191 14.8188 2.82403 14.823 3.61342C14.8152 3.80736 14.8594 3.99985 14.951 4.17094C15.1494 4.58112 15.5178 4.82723 16.6746 5.32865C18.8042 6.24528 19.7184 6.84967 20.2826 7.70854C20.6015 8.2512 20.7979 8.85703 20.858 9.48359C20.9182 10.1101 20.8406 10.7423 20.6308 11.3357C20.3424 11.9865 19.8851 12.5482 19.3063 12.9626C18.7275 13.377 18.0483 13.6289 17.3393 13.6922C16.5856 13.7786 15.8241 13.7707 15.0724 13.6687C13.921 13.4795 12.8603 12.9269 12.0455 12.0916C11.7376 11.7449 11.4769 11.359 11.2703 10.9439C11.3572 10.8793 11.4487 10.8211 11.544 10.7698C11.6763 10.6945 12.1769 10.4065 12.649 10.1328L13.5062 9.63053L13.6853 9.89171C13.9871 10.3232 14.3711 10.6907 14.8154 10.9732C15.2641 11.2194 15.7724 11.336 16.2835 11.3101C16.7947 11.2843 17.2886 11.1169 17.7101 10.8268C17.9276 10.6148 18.0635 10.3331 18.0942 10.031C18.1248 9.72883 18.0481 9.42557 17.8776 9.17431C17.6465 8.84365 17.1744 8.56573 15.8325 7.98394C14.7803 7.62915 13.8219 7.04108 13.0291 6.2637C12.6515 5.8334 12.3726 5.32567 12.212 4.77616C12.0933 4.15016 12.0758 3.50916 12.1601 2.87761C12.3177 2.15087 12.6948 1.49012 13.2404 0.984911C13.7861 0.479698 14.4739 0.154443 15.2105 0.0532197C15.9607 -0.0364208 16.7201 -0.0127171 17.4632 0.123536ZM10.4792 1.36496L10.4884 2.58211H6.61265V13.5884H3.8795V2.58462H0.0037098V1.38924C-0.00659814 0.979869 0.00457858 0.57024 0.0371939 0.162043C0.0514247 0.142789 2.40787 0.133581 5.26491 0.138604L10.4642 0.152835L10.4792 1.36496Z" fill="#FAFAFA"/>
</svg>
